<svg id="Layer_1" data-name="Layer 1" xmlns="http://www.w3.org/2000/svg" viewBox="0 0 630.94 125.38"><defs><style>.cls-1{fill:#bababa;}.cls-2{fill:#92c94b;}.cls-3{fill:#4fc8f0;}.cls-4{fill:#2a9fcd;}</style></defs><title>logo</title><path class="cls-1" d="M331,129.66a18.09,18.09,0,0,0-17.35,0,16.34,16.34,0,0,0-6.06,6,17.12,17.12,0,0,0-2.3,8.59v28.88a2.21,2.21,0,0,0,2.39,2.38,2.27,2.27,0,0,0,1.68-.64,2.4,2.4,0,0,0,.64-1.74v-18a14.69,14.69,0,0,0,5.35,4.62,15.82,15.82,0,0,0,7.44,1.74,16.13,16.13,0,0,0,8.44-2.23,16.47,16.47,0,0,0,5.9-6.08,17.41,17.41,0,0,0,2.17-8.69,17.14,17.14,0,0,0-2.23-8.76A16.32,16.32,0,0,0,331,129.66ZM333.07,151a11.87,11.87,0,0,1-4.44,4.56,12.92,12.92,0,0,1-12.67,0,11.56,11.56,0,0,1-4.4-4.56,14.22,14.22,0,0,1,0-13.07,11.8,11.8,0,0,1,4.4-4.55,12.78,12.78,0,0,1,12.67,0,12.27,12.27,0,0,1,4.44,4.55,14.07,14.07,0,0,1,0,13.07Z" transform="translate(-3 -50.14)"/><path class="cls-1" d="M377.18,129.53a15.28,15.28,0,0,0-8.11-2.1,15.77,15.77,0,0,0-8.33,2.2,15.37,15.37,0,0,0-5.65,6,18.35,18.35,0,0,0-2.06,8.84,17.7,17.7,0,0,0,2.17,8.81,15.73,15.73,0,0,0,6,6,17.83,17.83,0,0,0,14.78,1,16.73,16.73,0,0,0,5.14-2.85,1.74,1.74,0,0,0,.7-1.47,2.31,2.31,0,0,0-.83-1.59,2.14,2.14,0,0,0-1.47-.46,2.5,2.5,0,0,0-1.52.57,10.9,10.9,0,0,1-3.58,1.93,13.39,13.39,0,0,1-4.44.77,12.48,12.48,0,0,1-6.48-1.66,12,12,0,0,1-4.44-4.52,12.78,12.78,0,0,1-1.54-5.08H382.2a2.21,2.21,0,0,0,1.59-.58,2,2,0,0,0,.62-1.55,18.45,18.45,0,0,0-1.9-8.51A14.09,14.09,0,0,0,377.18,129.53ZM363,133.3a11.22,11.22,0,0,1,6.12-1.66,10.75,10.75,0,0,1,5.91,1.59,10.61,10.61,0,0,1,3.82,4.41A13.43,13.43,0,0,1,380,142.1H357.63a14,14,0,0,1,1.26-4.25A11.15,11.15,0,0,1,363,133.3Z" transform="translate(-3 -50.14)"/><path class="cls-1" d="M422.25,129.17a16.46,16.46,0,0,0-7.77-1.81,15,15,0,0,0-7.23,1.75,13.81,13.81,0,0,0-3.91,3.1v-2.1a2.32,2.32,0,0,0-.64-1.74,2.25,2.25,0,0,0-1.68-.64,2.35,2.35,0,0,0-1.74.64,2.32,2.32,0,0,0-.64,1.74v28.76a2.27,2.27,0,0,0,.64,1.68,2.39,2.39,0,0,0,1.74.64,2.29,2.29,0,0,0,1.68-.64,2.27,2.27,0,0,0,.64-1.68V140.76a7.8,7.8,0,0,1,1.41-4.59,9.69,9.69,0,0,1,3.82-3.19,13.3,13.3,0,0,1,11,.07,9.13,9.13,0,0,1,3.92,3.67A12.27,12.27,0,0,1,425,143v15.91a2.21,2.21,0,0,0,.68,1.65,2.27,2.27,0,0,0,1.71.68,2.22,2.22,0,0,0,1.66-.68,2.25,2.25,0,0,0,.68-1.65V143a16.87,16.87,0,0,0-2-8.51A13.35,13.35,0,0,0,422.25,129.17Z" transform="translate(-3 -50.14)"/><path class="cls-1" d="M466.22,144.28a23.51,23.51,0,0,0-7.25-2.17,23.22,23.22,0,0,1-5.23-1.34,6.26,6.26,0,0,1-2.63-1.83,4,4,0,0,1-.77-2.45,4.09,4.09,0,0,1,2-3.46,9.44,9.44,0,0,1,5.38-1.38,12.21,12.21,0,0,1,4.65.83,9.23,9.23,0,0,1,3.55,2.6,2.77,2.77,0,0,0,1.62.89,2.45,2.45,0,0,0,1.68-.28,2,2,0,0,0,1-1.4,2.2,2.2,0,0,0-.49-1.66,13,13,0,0,0-4.8-3.8,16.36,16.36,0,0,0-7.07-1.4,17.05,17.05,0,0,0-6.06,1,9.89,9.89,0,0,0-4.4,3.12,8.07,8.07,0,0,0-1.66,5.21,7.41,7.41,0,0,0,2.87,5.81q2.88,2.44,9.06,3.43a17.8,17.8,0,0,1,6.86,2.23,4.29,4.29,0,0,1,2.08,3.64,4.83,4.83,0,0,1-2.08,3.76c-1.34,1-3.53,1.55-6.55,1.55a14.94,14.94,0,0,1-5.35-.91,9.44,9.44,0,0,1-3.89-2.64,2.45,2.45,0,0,0-1.53-.79,2.43,2.43,0,0,0-2.7,2.09,2,2,0,0,0,.55,1.65,13.55,13.55,0,0,0,5.76,3.68,22,22,0,0,0,7.16,1.23,17.88,17.88,0,0,0,6.82-1.23,11.15,11.15,0,0,0,4.66-3.4,8.39,8.39,0,0,0,.55-9.24A9.47,9.47,0,0,0,466.22,144.28Z" transform="translate(-3 -50.14)"/><path class="cls-1" d="M509.42,129.66a16.8,16.8,0,0,0-8.66-2.23,17,17,0,0,0-8.69,2.23,16.33,16.33,0,0,0-6.09,6.09,17.19,17.19,0,0,0-2.23,8.76,17.48,17.48,0,0,0,2.17,8.69,16.09,16.09,0,0,0,14.35,8.31,15.68,15.68,0,0,0,8-2,15.39,15.39,0,0,0,4.74-4.34v3.75a2.21,2.21,0,0,0,.67,1.68,2.63,2.63,0,0,0,3.44,0,2.22,2.22,0,0,0,.68-1.68V144.48a17.58,17.58,0,0,0-2.3-8.75A16.74,16.74,0,0,0,509.42,129.66Zm-2.33,25.92A12.4,12.4,0,0,1,490,151,13.77,13.77,0,0,1,490,138a12.35,12.35,0,0,1,4.47-4.55,12.27,12.27,0,0,1,17,4.55,14,14,0,0,1,0,13.07A11.91,11.91,0,0,1,507.09,155.58Z" transform="translate(-3 -50.14)"/><path class="cls-1" d="M559.13,129.66a16.11,16.11,0,0,0-8.44-2.23,15.69,15.69,0,0,0-7.43,1.74,14.91,14.91,0,0,0-5.36,4.62v-18a2.33,2.33,0,0,0-.64-1.74,2.25,2.25,0,0,0-1.68-.64,2.32,2.32,0,0,0-1.74.64,2.36,2.36,0,0,0-.64,1.74v28.88a17.21,17.21,0,0,0,2.29,8.61,16.46,16.46,0,0,0,6.06,6,18,18,0,0,0,17.36,0,16.52,16.52,0,0,0,6.09-6.08,17.13,17.13,0,0,0,2.23-8.75,17.35,17.35,0,0,0-2.17-8.69A16.49,16.49,0,0,0,559.13,129.66ZM560.94,151a12.53,12.53,0,0,1-17.11,4.57,11.85,11.85,0,0,1-4.4-4.57,14.22,14.22,0,0,1,0-13.07,11.77,11.77,0,0,1,4.4-4.56,12.92,12.92,0,0,1,12.67,0,11.87,11.87,0,0,1,4.44,4.56,14,14,0,0,1,0,13.07Z" transform="translate(-3 -50.14)"/><path class="cls-1" d="M591.44,156.56h-1.53a3.14,3.14,0,0,1-2.72-1.66,7.71,7.71,0,0,1-1.07-4.29V115.74a2.32,2.32,0,1,0-4.64,0v34.87a13.21,13.21,0,0,0,1.07,5.51,8.94,8.94,0,0,0,3,3.74,7.46,7.46,0,0,0,4.38,1.34h.79a3,3,0,0,0,2-.64,2.07,2.07,0,0,0,.77-1.68,2.53,2.53,0,0,0-.55-1.68A1.87,1.87,0,0,0,591.44,156.56Z" transform="translate(-3 -50.14)"/><path class="cls-1" d="M632.07,135.38a14.37,14.37,0,0,0-5.36-5.85,15.28,15.28,0,0,0-8.11-2.1,15.77,15.77,0,0,0-8.33,2.2,15.37,15.37,0,0,0-5.65,6,18.35,18.35,0,0,0-2.06,8.84,17.7,17.7,0,0,0,2.17,8.81,15.73,15.73,0,0,0,6,6,17.83,17.83,0,0,0,14.78,1,16.73,16.73,0,0,0,5.14-2.85,1.72,1.72,0,0,0,.7-1.47,2.27,2.27,0,0,0-.83-1.59,2.13,2.13,0,0,0-1.46-.46,2.51,2.51,0,0,0-1.53.57,10.9,10.9,0,0,1-3.58,1.93,13.39,13.39,0,0,1-4.44.77,12.48,12.48,0,0,1-6.48-1.66,12,12,0,0,1-4.44-4.52A12.94,12.94,0,0,1,607,146h24.69a2.21,2.21,0,0,0,1.59-.58,2,2,0,0,0,.62-1.55A18.37,18.37,0,0,0,632.07,135.38Zm-19.58-2.08a11.22,11.22,0,0,1,6.12-1.66,10.75,10.75,0,0,1,5.91,1.59,10.61,10.61,0,0,1,3.82,4.41,13.19,13.19,0,0,1,1.21,4.46H607.16a14,14,0,0,1,1.26-4.25A11.15,11.15,0,0,1,612.49,133.3Z" transform="translate(-3 -50.14)"/><path class="cls-2" d="M279,69.89s11.21,1.91,20.41,20.59,21.22,17.55,27.23,13.35a61.52,61.52,0,0,1-15.21-21.74C305.4,68,282.59,68,279,69.89Z" transform="translate(-3 -50.14)"/><path class="cls-3" d="M317.41,106.4s34.84,9.64,48.45-20.49,32.43-34.33,32.43-34.33-27.23-7.37-40.44,11.19S328.24,104.39,317.41,106.4Z" transform="translate(-3 -50.14)"/><path class="cls-4" d="M8.09,102.4a3.29,3.29,0,0,0-2.33.86,3.09,3.09,0,0,0-.92,2.38V158.4a3.24,3.24,0,0,0,.92,2.34,3.16,3.16,0,0,0,2.33.91,3.12,3.12,0,0,0,2.38-.91,3.29,3.29,0,0,0,.87-2.34V105.64a3.21,3.21,0,0,0-.87-2.38A3.25,3.25,0,0,0,8.09,102.4Z" transform="translate(-3 -50.14)"/><path class="cls-4" d="M37.34,161.65a3.12,3.12,0,0,1-3.25-3.25V80.29A3.2,3.2,0,0,1,35,78,3.16,3.16,0,0,1,37.34,77a3.21,3.21,0,0,1,2.49,1.08l55,71.6V80.29A3.13,3.13,0,0,1,98.11,77a3.21,3.21,0,0,1,2.27.92,3.06,3.06,0,0,1,1,2.33v78.1a3.06,3.06,0,0,1-1,2.33,3.2,3.2,0,0,1-2.27.92,3.15,3.15,0,0,1-1.36-.28,3.24,3.24,0,0,1-1-.7L40.58,89v69.44a3.2,3.2,0,0,1-.91,2.33A3.15,3.15,0,0,1,37.34,161.65Z" transform="translate(-3 -50.14)"/><path class="cls-4" d="M126.27,161.65a3.16,3.16,0,0,1-2.33-.91,3.2,3.2,0,0,1-.92-2.34V80.29a3.13,3.13,0,0,1,.92-2.38,3.25,3.25,0,0,1,2.33-.87h19.5a45.83,45.83,0,0,1,17.06,3.08A39.26,39.26,0,0,1,185,102.28a45.45,45.45,0,0,1,3.08,17A45.92,45.92,0,0,1,185,136.36a39.15,39.15,0,0,1-22.21,22.21,45.87,45.87,0,0,1-17.06,3.08Zm3.25-5.86h16.25A35.93,35.93,0,0,0,164.35,151,34.12,34.12,0,0,0,177,138a37.6,37.6,0,0,0,4.61-18.73A37.37,37.37,0,0,0,177,100.6a34.29,34.29,0,0,0-12.67-12.94,35.93,35.93,0,0,0-18.58-4.76H129.52Z" transform="translate(-3 -50.14)"/><path class="cls-4" d="M208.7,161.65a3.13,3.13,0,0,1-3.25-3.25V80.29a3.2,3.2,0,0,1,.92-2.33A3.13,3.13,0,0,1,208.7,77,3.17,3.17,0,0,1,211,78a3.13,3.13,0,0,1,.92,2.33v78.1a3.16,3.16,0,0,1-3.25,3.26Z" transform="translate(-3 -50.14)"/><path class="cls-4" d="M259,162.73a39.53,39.53,0,0,1-12.52-1.89,29.34,29.34,0,0,1-9.81-5.42,26.19,26.19,0,0,1-6.49-8.29,2.64,2.64,0,0,1,0-2.5,3.18,3.18,0,0,1,2-1.63,3,3,0,0,1,2.39.12,4,4,0,0,1,1.84,1.73,21.51,21.51,0,0,0,5.14,6.07,22.53,22.53,0,0,0,7.59,4,33.65,33.65,0,0,0,9.91,1.35,25.52,25.52,0,0,0,10.67-2.06,15.28,15.28,0,0,0,6.93-6.07,18.34,18.34,0,0,0,2.44-9.74,16.09,16.09,0,0,0-5.15-12.08q-5.14-4.92-15.65-6.33-12.14-1.72-19-7.85a19.26,19.26,0,0,1-6.82-14.9A19.6,19.6,0,0,1,235.64,86a21.09,21.09,0,0,1,9-7.42A31.83,31.83,0,0,1,258,76a28.6,28.6,0,0,1,10.4,1.84,29.93,29.93,0,0,1,8.34,4.82,25.08,25.08,0,0,1,5.53,6.23,3.06,3.06,0,0,1,.37,2.55,2.75,2.75,0,0,1-1.79,1.89,3.54,3.54,0,0,1-2.38,0,3.73,3.73,0,0,1-2-1.47,24.93,24.93,0,0,0-3.9-4.44,19.27,19.27,0,0,0-6-3.57A23.59,23.59,0,0,0,258,82.44c-5.92,0-10.59,1.35-14,4s-5.09,6.46-5.09,11.37a12.66,12.66,0,0,0,2.1,7.1,16.7,16.7,0,0,0,6.66,5.47,41.55,41.55,0,0,0,11.59,3.46q14,2.39,20.09,8.61t6.12,15.87a26.27,26.27,0,0,1-1.89,10.18,21.1,21.1,0,0,1-5.42,7.69,24.21,24.21,0,0,1-8.4,4.81A32.43,32.43,0,0,1,259,162.73Z" transform="translate(-3 -50.14)"/><circle class="cls-2" cx="5.27" cy="34.67" r="5.27"/></svg>